<?xml version="1.0" standalone="no"?>
<!DOCTYPE svg PUBLIC "-//W3C//DTD SVG 20010904//EN"
 "http://www.w3.org/TR/2001/REC-SVG-20010904/DTD/svg10.dtd">
<svg version="1.0" xmlns="http://www.w3.org/2000/svg"
 width="542.000000pt" height="542.000000pt" viewBox="0 0 542.000000 542.000000"
 preserveAspectRatio="xMidYMid meet">
<metadata>
Created by potrace 1.11, written by Peter Selinger 2001-2013
</metadata>
<g transform="translate(0.000000,542.000000) scale(0.100000,-0.100000)"
fill="#000000" stroke="none">
<path d="M2679 5382 c-15 -20 -73 -102 -130 -182 -143 -199 -191 -275 -259
-415 -68 -140 -120 -291 -151 -436 -26 -122 -35 -354 -18 -457 6 -37 13 -80
16 -97 16 -104 124 -356 184 -434 11 -13 19 -27 19 -31 0 -9 -98 5 -147 20
-114 37 -233 146 -295 271 -52 102 -97 241 -114 345 -12 80 -15 78 -94 -48
-242 -389 -468 -808 -618 -1149 -81 -182 -185 -486 -208 -604 -6 -31 -14 -67
-20 -95 -11 -43 -13 -342 -3 -410 5 -36 12 -83 15 -105 11 -78 63 -263 100
-356 148 -372 397 -678 730 -895 234 -153 531 -260 809 -292 81 -9 353 -9 440
1 136 15 366 75 490 128 17 7 32 13 35 13 3 1 47 23 98 49 364 183 674 499
848 864 72 152 141 371 160 502 2 20 7 53 10 73 14 92 21 487 10 543 -2 11 -7
47 -11 80 -8 66 -46 209 -71 267 l-16 37 -44 -59 c-57 -76 -148 -159 -222
-204 -63 -38 -172 -89 -172 -81 0 3 10 22 23 43 39 62 60 131 75 247 9 65 9
287 0 345 -39 259 -124 506 -253 735 -15 28 -64 115 -108 195 -197 357 -417
702 -752 1180 -151 214 -323 450 -328 450 -1 -1 -14 -17 -28 -38z m176 -2436
c550 -88 936 -546 920 -1091 -3 -95 -7 -120 -31 -224 -68 -298 -314 -595 -590
-711 -27 -12 -58 -25 -69 -30 -138 -61 -421 -84 -591 -47 -315 70 -577 268
-729 552 -37 70 -89 212 -100 272 -52 300 -3 561 150 799 168 259 444 435 750
478 87 12 220 13 290 2z"/>
<path d="M2556 2303 l1 -263 -262 0 -262 0 -1 -150 c0 -108 3 -150 11 -151 7
0 125 -1 262 -2 l250 -2 2 -250 c0 -137 2 -256 2 -262 1 -10 38 -13 151 -13
113 0 150 3 151 13 0 6 1 125 1 263 l1 251 262 -1 262 -1 0 153 1 152 -263 0
-262 0 -1 238 c0 130 -1 249 -1 263 l-1 26 -152 0 -153 0 1 -264z"/>
</g>
</svg>
