<?xml version="1.0" standalone="no"?>
<!DOCTYPE svg PUBLIC "-//W3C//DTD SVG 20010904//EN"
 "http://www.w3.org/TR/2001/REC-SVG-20010904/DTD/svg10.dtd">
<svg version="1.0" xmlns="http://www.w3.org/2000/svg"
 width="73.000000pt" height="73.000000pt" viewBox="0 0 73.000000 73.000000"
 preserveAspectRatio="xMidYMid meet">
<metadata>
Created by potrace 1.11, written by Peter Selinger 2001-2013
</metadata>
<g transform="translate(0.000000,73.000000) scale(0.100000,-0.100000)"
fill="#000000" stroke="none">
<path d="M343 697 c-52 -76 -66 -163 -37 -232 8 -19 7 -19 -16 -4 -13 9 -29
31 -35 49 l-11 33 -22 -31 c-41 -57 -95 -183 -100 -233 -7 -78 14 -136 72
-194 97 -96 236 -103 336 -17 69 59 103 156 86 247 -7 34 -9 36 -24 22 -34
-29 -37 -26 -37 36 0 70 -20 115 -112 254 -72 107 -74 109 -100 70z m85 -311
c100 -52 107 -181 13 -243 -110 -74 -258 58 -197 175 16 30 53 66 76 75 28 10
81 7 108 -7z"/>
<path d="M350 315 c0 -33 -2 -35 -35 -35 -28 0 -35 -4 -35 -20 0 -18 26 -27
63 -21 4 0 7 -14 7 -32 0 -38 6 -48 26 -40 8 3 14 19 14 39 0 32 2 34 35 34
28 0 35 4 35 20 0 16 -7 20 -35 20 -33 0 -35 2 -35 35 0 28 -4 35 -20 35 -16
0 -20 -7 -20 -35z"/>
</g>
</svg>
