<svg id="Layer_1" data-name="Layer 1" xmlns="http://www.w3.org/2000/svg" viewBox="0 0 44 63.36"><defs><style>.cls-1{fill:#fff;}</style></defs><title>logo</title><path d="M44,41.36A22,22,0,0,1,.28,44.85,21.08,21.08,0,0,1,0,41.36a21.73,21.73,0,0,1,1.52-7h0c2.23-6.17,6.55-13.69,10.66-20.13A22.08,22.08,0,0,0,18.58,21a20.48,20.48,0,0,1-.8-2.32,21.77,21.77,0,0,1-.3-11,20.45,20.45,0,0,1,.72-2.46c1.19-1.71,2.18-3.09,2.86-4L22,0l1,1.42c1.66,2.26,5.05,7,8.64,12.63.91,1.42,2.82,4.84,4.56,8A18.85,18.85,0,0,1,37.8,36.6a6,6,0,0,1-.26.73C39.63,36.6,42.13,32,41.82,31c.51,1.15,1,2.28,1.36,3.37A19,19,0,0,1,44,41.36Z"/><circle class="cls-1" cx="22" cy="41.29" r="12.49"/><rect x="20.24" y="33.37" width="3.52" height="15.84"/><rect x="14.08" y="39.53" width="15.84" height="3.52"/></svg>